<svg width="81" height="95" viewBox="0 0 81 95" fill="none" xmlns="http://www.w3.org/2000/svg">
<g clip-path="url(#clip0_64_199)">
<path fill-rule="evenodd" clip-rule="evenodd" d="M33.5538 0H47.4326V25.9165C58.4267 22.8739 66.5362 12.7817 66.5362 0.869317H81C81 20.7685 66.4682 37.3942 47.4462 40.6949V41.2925H79.272V55.4461H50.0994C67.788 59.7655 80.9864 75.7528 80.9864 94.7147H66.5362C66.5362 82.8024 58.4267 72.7102 47.4462 69.6676V95H33.5674V69.6676C22.5869 72.7102 14.4774 82.8024 14.4774 94.7147H0C0 75.7528 13.1984 59.7655 30.8869 55.4461H1.74164V41.2925H33.5674V40.6949C14.5318 37.3942 0 20.7685 0 0.869317H14.4638C14.4638 12.7817 22.5733 22.8739 33.5538 25.9165V0Z" fill="#F7FBFF"/>
</g>
<defs>
<clipPath id="clip0_64_199">
<rect width="81" height="95" fill="white"/>
</clipPath>
</defs>
</svg>
